<svg xmlns="http://www.w3.org/2000/svg" width="64" height="64" viewBox="0 0 64 64" role="img" aria-labelledby="title">
  <title id="title">Beauty &amp; Personal Care</title>
  <style>
    .outline { fill: none; stroke: var(--oweg-dark, #1F2A33); stroke-width: 2.4; stroke-linecap: round; stroke-linejoin: round; }
    .accent { fill: var(--oweg-green, #66C940); }
    .accent-stroke { fill: none; stroke: var(--oweg-green, #66C940); stroke-width: 2.4; stroke-linecap: round; stroke-linejoin: round; }
    .soft { fill: var(--oweg-soft, #EAF8E7); }
  </style>

  <rect class="outline" x="9" y="20" width="15" height="34" rx="5"/>
  <path class="outline" d="M12 20v-5h9v5M10 15h14"/>
  <rect class="accent" x="13" y="34" width="8" height="11" rx="1"/>
  <path fill="#fff" d="M15 41c4-1 5-5 5-5c-4 0-6 2-5 5z"/>
  <path class="outline" d="M31 31h8v23h-8z"/>
  <path class="accent" d="M32 31l6-7l1 7z"/>
  <circle class="outline" cx="50" cy="43" r="10"/>
  <path class="accent-stroke" d="M45 47l10-8"/>
  <path class="accent" d="M49 17l1.5 3l3 .8l-3 .8l-1.5 3l-1.5-3l-3-.8l3-.8z"/>

</svg>
