<svg xmlns="http://www.w3.org/2000/svg" width="64" height="64" viewBox="0 0 64 64" role="img" aria-labelledby="title">
  <title id="title">Hardware</title>
  <style>
    .outline { fill: none; stroke: var(--oweg-dark, #1F2A33); stroke-width: 2.4; stroke-linecap: round; stroke-linejoin: round; }
    .accent { fill: var(--oweg-green, #66C940); }
    .accent-stroke { fill: none; stroke: var(--oweg-green, #66C940); stroke-width: 2.4; stroke-linecap: round; stroke-linejoin: round; }
    .soft { fill: var(--oweg-soft, #EAF8E7); }
  </style>

  <path class="outline" d="M18 11c4 0 7 3 7 7l-5 5l-4-4l5-5c-4-2-10 1-10 7c0 4 3 7 7 7l25 25c2 2 5 2 7 0s2-5 0-7L25 21"/>
  <path class="outline" d="M47 10l7 7l-28 28l-7-7L47 10z"/>
  <path class="accent-stroke" d="M21 38l5 5M16 43l5 5"/>
  <circle class="outline" cx="47" cy="47" r="2"/>

</svg>
