<svg xmlns="http://www.w3.org/2000/svg" width="64" height="64" viewBox="0 0 64 64" role="img" aria-labelledby="title">
  <title id="title">Jewellery</title>
  <style>
    .outline { fill: none; stroke: var(--oweg-dark, #1F2A33); stroke-width: 2.4; stroke-linecap: round; stroke-linejoin: round; }
    .accent { fill: var(--oweg-green, #66C940); }
    .accent-stroke { fill: none; stroke: var(--oweg-green, #66C940); stroke-width: 2.4; stroke-linecap: round; stroke-linejoin: round; }
    .soft { fill: var(--oweg-soft, #EAF8E7); }
  </style>

  <path class="outline" d="M23 12h18l8 10l-17 18L15 22l8-10z"/>
  <path class="accent" d="M23 12h18l8 10H15z"/>
  <path class="outline" d="M15 22h34M23 12l9 28l9-28M23 12l-3 10M41 12l3 10"/>
  <circle class="outline" cx="32" cy="45" r="13"/>
  <path class="accent" d="M28 32h8l-4 5z"/>
  <path class="accent" d="M52 13l1.3 2.7l2.7 1.3l-2.7 1.3L52 21l-1.3-2.7L48 17l2.7-1.3z"/>

</svg>
