<svg xmlns="http://www.w3.org/2000/svg" width="64" height="64" viewBox="0 0 64 64" role="img" aria-labelledby="title">
  <title id="title">Wishlist</title>
  <style>
    .outline { fill: none; stroke: var(--oweg-dark, #1F2A33); stroke-width: 2.4; stroke-linecap: round; stroke-linejoin: round; }
    .muted-outline { fill: none; stroke: var(--oweg-muted, #667085); stroke-width: 2.2; stroke-linecap: round; stroke-linejoin: round; }
    .accent { fill: var(--oweg-green, #66C940); }
    .accent-stroke { fill: none; stroke: var(--oweg-green, #66C940); stroke-width: 2.4; stroke-linecap: round; stroke-linejoin: round; }
    .soft { fill: var(--oweg-soft, #EAF8E7); }
    .red { fill: var(--oweg-red, #D92D20); }
    .red-stroke { fill: none; stroke: var(--oweg-red, #D92D20); stroke-width: 2.4; stroke-linecap: round; stroke-linejoin: round; }
    .orange { fill: var(--oweg-orange, #F79009); }
    .orange-stroke { fill: none; stroke: var(--oweg-orange, #F79009); stroke-width: 2.4; stroke-linecap: round; stroke-linejoin: round; }
    .blue { fill: var(--oweg-blue, #1570EF); }
    .blue-stroke { fill: none; stroke: var(--oweg-blue, #1570EF); stroke-width: 2.4; stroke-linecap: round; stroke-linejoin: round; }
  </style>

  <path class="outline" d="M32 52l-4-3C18 41 11 35 11 25c0-7 5-12 12-12c4 0 7 2 9 5c2-3 5-5 9-5c7 0 12 5 12 12c0 10-7 16-17 24z"/>
  <path class="accent" d="M32 45c-8-6-14-11-14-18c0-4 3-7 7-7c3 0 5 2 7 5c2-3 4-5 7-5c4 0 7 3 7 7c0 7-6 12-14 18z"/>

</svg>
