<svg xmlns="http://www.w3.org/2000/svg" viewBox="0 0 24 24" fill="none">
  <g stroke-linecap="round" stroke-linejoin="round">
    <rect x="6" y="2.7" width="12" height="18.2" rx="2.2" stroke="#26343D" stroke-width="1.45"/>
    <path d="M8.3 5.6h7.4" stroke="#26343D" stroke-width="1.25"/>
    <circle cx="12" cy="12.5" r="4.2" stroke="#26343D" stroke-width="1.35"/>
    <path d="M12 9.1c.8 1.3.9 2.3.2 3-.7.7-1.8.6-3.1-.1 1.3-.8 2.3-.9 3-.2.7.7.6 1.8-.1 3.1-.8-1.3-.9-2.3-.2-3 .7-.7 1.8-.6 3.1.1-1.3.8-2.3.9-3 .2-.7-.7-.6-1.8.1-3.1Z" stroke="#59C83D" stroke-width="1.05"/>
    <path d="M9 18.2h6" stroke="#26343D" stroke-width="1.25"/>
    <circle cx="9" cy="4.3" r=".55" fill="#59C83D" stroke="none"/>
    <circle cx="11" cy="4.3" r=".55" fill="#59C83D" stroke="none"/>
  </g>
</svg>
